<svg xmlns="http://www.w3.org/2000/svg" viewBox="0 0 360 80">
      <defs>
        <linearGradient id="wg1" x1="0%" y1="0%" x2="100%" y2="0%">
          <stop offset="0%"   stop-color="#00e5c8"/>
          <stop offset="50%"  stop-color="#60d0ff"/>
          <stop offset="100%" stop-color="#ffaa00"/>
        </linearGradient>
        <filter id="wglow"><feGaussianBlur stdDeviation="2" result="b"/>
          <feMerge><feMergeNode in="b"/><feMergeNode in="SourceGraphic"/></feMerge></filter>
      </defs>
      <!-- Icon mark (mini) -->
      <g transform="translate(8,8)">
        <circle cx="32" cy="32" r="28" fill="none" stroke="#00e5c8" stroke-width="1" stroke-dasharray="4,3" opacity="0.4"/>
        <circle cx="32" cy="4"  r="3.5" fill="#00e5c8" filter="url(#wglow)"/>
        <circle cx="60" cy="32" r="3.5" fill="#00e5c8" filter="url(#wglow)"/>
        <circle cx="32" cy="60" r="3.5" fill="#ffaa00" filter="url(#wglow)"/>
        <circle cx="4"  cy="32" r="3.5" fill="#00e5c8" filter="url(#wglow)"/>
        <ellipse cx="32" cy="34" rx="20" ry="19" fill="#070e18" stroke="#0d2030" stroke-width="1"/>
        <polygon points="20,22 14,6 26,18"  fill="#070e18" stroke="#00e5c8" stroke-width="1.5"/>
        <circle cx="14" cy="6" r="3" fill="#00e5c8" filter="url(#wglow)"/>
        <polygon points="44,22 50,6 38,18" fill="#070e18" stroke="#00e5c8" stroke-width="1.5"/>
        <circle cx="50" cy="6" r="3" fill="#00e5c8" filter="url(#wglow)"/>
        <circle cx="22" cy="30" r="8" fill="#040c18" stroke="#00e5c8" stroke-width="1.5"/>
        <ellipse cx="22" cy="30" rx="3" ry="5" fill="#00e5c8" opacity="0.9" filter="url(#wglow)"/>
        <circle cx="22" cy="22" r="2" fill="#ffaa00" filter="url(#wglow)"/>
        <circle cx="42" cy="30" r="8" fill="#040c18" stroke="#00e5c8" stroke-width="1.5"/>
        <ellipse cx="42" cy="30" rx="3" ry="5" fill="#00e5c8" opacity="0.9" filter="url(#wglow)"/>
        <circle cx="42" cy="22" r="2" fill="#ffaa00" filter="url(#wglow)"/>
        <polygon points="32,38 28,44 32,49 36,44" fill="#ffaa00" opacity="0.9" filter="url(#wglow)"/>
        <path d="M 24,52 Q 30,58 32,55 Q 34,58 40,52" fill="none" stroke="#00e5c8" stroke-width="1.2" opacity="0.5"/>
        <line x1="24" y1="40" x2="8" y2="37"  stroke="#00e5c8" stroke-width="0.8" opacity="0.4"/>
        <line x1="24" y1="44" x2="8" y2="47"  stroke="#00e5c8" stroke-width="0.8" opacity="0.4"/>
        <line x1="40" y1="40" x2="56" y2="37" stroke="#00e5c8" stroke-width="0.8" opacity="0.4"/>
        <line x1="40" y1="44" x2="56" y2="47" stroke="#00e5c8" stroke-width="0.8" opacity="0.4"/>
        <circle cx="8"  cy="37" r="2" fill="#00e5c8" opacity="0.6"/>
        <circle cx="8"  cy="47" r="2" fill="#00e5c8" opacity="0.6"/>
        <circle cx="56" cy="37" r="2" fill="#00e5c8" opacity="0.6"/>
        <circle cx="56" cy="47" r="2" fill="#00e5c8" opacity="0.6"/>
      </g>
      <!-- Wordmark -->
      <text x="92" y="46" font-family="Orbitron, monospace" font-weight="900"
            font-size="30" fill="url(#wg1)" filter="url(#wglow)" letter-spacing="4">
        DAC-ECAT
      </text>
      <!-- Tagline -->
      <text x="93" y="62" font-family="DM Mono, monospace" font-size="8"
            fill="#2a4a60" letter-spacing="4">
        DISTRIBUTED AUTOMATION CONTROL
      </text>
      <!-- Separator line -->
      <line x1="86" y1="14" x2="86" y2="66" stroke="#1a3040" stroke-width="1"/>
    </svg>
